<svg xmlns="http://www.w3.org/2000/svg" width="24" height="24" viewBox="0 0 24 24" fill="none">
  <path d="M3 4C1.89583 4 1 4.89583 1 6C1 6.62917 1.29583 7.22083 1.8 7.6L10.8667 14.4C11.3417 14.7542 11.9917 14.7542 12.4667 14.4L21.5333 7.6C22.0375 7.22083 22.3333 6.62917 22.3333 6C22.3333 4.89583 21.4375 4 20.3333 4H3ZM1 8.66667V17.3333C1 18.8042 2.19583 20 3.66667 20H19.6667C21.1375 20 22.3333 18.8042 22.3333 17.3333V8.66667L13.2667 15.4667C12.3167 16.1792 11.0167 16.1792 10.0667 15.4667L1 8.66667Z" fill="#2B2B2B"/>
</svg>