<svg xmlns="http://www.w3.org/2000/svg" width="30" height="30" viewBox="0 0 30 30" fill="none">
  <path d="M5.30353 11.3057C5.60712 11.5148 6.52228 12.1356 8.04903 13.1678C9.57583 14.2 10.7455 14.9948 11.558 15.5522C11.6473 15.6133 11.8369 15.7461 12.127 15.9508C12.4172 16.1557 12.6583 16.3212 12.8502 16.4475C13.0422 16.5737 13.2743 16.7153 13.5468 16.8721C13.8191 17.0287 14.0758 17.1465 14.3169 17.2245C14.558 17.3031 14.7812 17.3421 14.9865 17.3421H15H15.0135C15.2188 17.3421 15.4421 17.3031 15.6832 17.2245C15.9242 17.1465 16.1812 17.0286 16.4533 16.8721C16.7256 16.7152 16.9577 16.5737 17.1497 16.4475C17.3417 16.3212 17.5826 16.1557 17.8729 15.9508C18.163 15.7459 18.3528 15.6133 18.4421 15.5522C19.2634 14.9948 21.3529 13.5792 24.7099 11.3055C25.3616 10.8614 25.9062 10.3255 26.3436 9.69831C26.7814 9.07134 27 8.41362 27 7.72551C27 7.15049 26.7878 6.65826 26.3637 6.24887C25.9396 5.83939 25.4373 5.63477 24.8571 5.63477H5.14277C4.45531 5.63477 3.92627 5.86122 3.55573 6.31414C3.18524 6.76714 3 7.33337 3 8.01279C3 8.56158 3.24562 9.15628 3.73662 9.79652C4.22757 10.4368 4.75004 10.9399 5.30353 11.3057Z" fill="#EEB140"/>
  <path d="M25.6605 12.6624C22.7322 14.6601 20.5088 16.2126 18.9911 17.3197C18.4822 17.6975 18.0693 17.9924 17.7523 18.2038C17.4352 18.4153 17.0136 18.6312 16.4867 18.8516C15.96 19.0723 15.4691 19.1824 15.0137 19.1824H15H14.9866C14.5312 19.1824 14.0401 19.0723 13.5134 18.8516C12.9867 18.6312 12.5647 18.4153 12.2478 18.2038C11.9309 17.9924 11.5179 17.6975 11.009 17.3197C9.80361 16.4288 7.5849 14.8762 4.35281 12.6624C3.84376 12.3207 3.39286 11.929 3 11.4881V22.206C3 22.8003 3.20973 23.3085 3.62943 23.7315C4.04903 24.1546 4.55358 24.3661 5.1429 24.3661H24.8572C25.4464 24.3661 25.9509 24.1546 26.3706 23.7315C26.7904 23.3084 27 22.8004 27 22.206V11.4881C26.616 11.9198 26.1697 12.3116 25.6605 12.6624Z" fill="#EEB140"/>
</svg>