<svg xmlns="http://www.w3.org/2000/svg" width="30" height="30" viewBox="0 0 30 30" fill="none">
  <path fill-rule="evenodd" clip-rule="evenodd" d="M16.7459 26.3686C19.5812 24.0458 24.8766 18.9014 24.8766 12.8758C24.8766 10.2566 23.8361 7.74462 21.984 5.89255C20.1319 4.04048 17.62 3 15.0008 3C12.3816 3 9.86962 4.04048 8.01755 5.89255C6.16548 7.74462 5.125 10.2566 5.125 12.8758C5.125 18.9014 10.4203 24.0458 13.2557 26.3686C13.7457 26.7766 14.3632 27 15.0008 27C15.6384 27 16.2559 26.7766 16.7459 26.3686ZM15.0008 15.07C15.6517 15.07 16.2881 14.877 16.8294 14.5153C17.3706 14.1537 17.7925 13.6396 18.0416 13.0382C18.2907 12.4368 18.3559 11.775 18.2289 11.1365C18.1019 10.4981 17.7884 9.91162 17.3281 9.45132C16.8678 8.99102 16.2813 8.67755 15.6429 8.55055C15.0044 8.42355 14.3426 8.48873 13.7412 8.73784C13.1398 8.98696 12.6258 9.40882 12.2641 9.95008C11.9025 10.4913 11.7094 11.1277 11.7094 11.7787C11.7094 12.6516 12.0562 13.4887 12.6734 14.106C13.2907 14.7232 14.1279 15.07 15.0008 15.07Z" fill="#EEB140"/>
</svg>