<svg xmlns="http://www.w3.org/2000/svg" width="30" height="30" viewBox="0 0 30 30" fill="none">
  <path d="M26.9886 21.9406C27.0394 22.3305 26.9207 22.6695 26.6329 22.9576L23.2537 26.3134C23.1013 26.4829 22.9023 26.6271 22.6567 26.7456C22.4111 26.8643 22.1698 26.9406 21.9327 26.9744C21.9158 26.9744 21.8648 26.9788 21.7801 26.9872C21.6955 26.9957 21.5854 27 21.4499 27C21.128 27 20.6071 26.9449 19.8873 26.8347C19.1674 26.7245 18.2867 26.4533 17.2451 26.0211C16.2032 25.5889 15.0218 24.9406 13.7007 24.0762C12.3795 23.212 10.9736 22.0254 9.48309 20.5169C8.29743 19.3474 7.31502 18.2288 6.53587 17.161C5.75671 16.0932 5.13001 15.1059 4.65574 14.1991C4.18143 13.2924 3.82573 12.4703 3.5886 11.733C3.35147 10.9957 3.19055 10.3602 3.10586 9.82626C3.02117 9.29236 2.9873 8.87287 3.00423 8.56779C3.02117 8.2627 3.02964 8.09321 3.02964 8.05931C3.06352 7.82203 3.13974 7.5805 3.25831 7.33474C3.37687 7.08898 3.52085 6.88982 3.69023 6.73728L7.06937 3.35593C7.30651 3.11864 7.57752 3 7.8824 3C8.1026 3 8.29739 3.06356 8.46677 3.19068C8.63615 3.3178 8.78012 3.47458 8.89869 3.66102L11.6173 8.82202C11.7697 9.09321 11.812 9.38982 11.7443 9.71185C11.6765 10.0339 11.5326 10.3051 11.3124 10.5254L10.0674 11.7712C10.0335 11.8051 10.0039 11.8602 9.97849 11.9364C9.95308 12.0127 9.94038 12.0763 9.94038 12.1271C10.0081 12.483 10.1606 12.8898 10.3977 13.3474C10.601 13.7542 10.9143 14.25 11.3378 14.8347C11.7612 15.4195 12.3625 16.0932 13.1417 16.8559C13.9039 17.6356 14.5814 18.2415 15.1742 18.6737C15.767 19.1058 16.2626 19.4237 16.6606 19.6271C17.0587 19.8305 17.3635 19.9534 17.5752 19.9956L17.8927 20.0592C17.9266 20.0592 17.9818 20.0465 18.0579 20.0211C18.1341 19.9956 18.1892 19.966 18.2231 19.932L19.6713 18.4575C19.9763 18.1863 20.3319 18.0507 20.7384 18.0507C21.0264 18.0507 21.255 18.1015 21.4244 18.2033H21.4497L26.3533 21.1016C26.7091 21.3221 26.9208 21.6017 26.9886 21.9406Z" fill="#EEB140"/>
</svg>