<svg xmlns="http://www.w3.org/2000/svg" width="96" height="24" viewBox="0 0 96 24" fill="none">
                <circle cx="12" cy="12" r="12" fill="#2B2B2B"/>
                <path d="M9.24813 17.0435H7.1659V10.338H9.24813V17.0435ZM8.20589 9.42327C7.54006 9.42327 7 8.87176 7 8.20592C7 7.88609 7.12705 7.57936 7.3532 7.3532C7.57935 7.12705 7.88607 7 8.20589 7C8.52571 7 8.83243 7.12705 9.05858 7.3532C9.28473 7.57936 9.41178 7.88609 9.41178 8.20592C9.41178 8.87176 8.87149 9.42327 8.20589 9.42327ZM17.0412 17.0435H14.9635V13.7793C14.9635 13.0013 14.9478 12.0037 13.8809 12.0037C12.7983 12.0037 12.6324 12.8489 12.6324 13.7232V17.0435H10.5524V10.338H12.5495V11.2527H12.5786C12.8566 10.7258 13.5357 10.1698 14.5487 10.1698C16.6561 10.1698 17.0435 11.5576 17.0435 13.36V17.0435H17.0412Z" fill="white"/>
                <circle cx="48" cy="12" r="12" fill="#2B2B2B"/>
                <path d="M49.9273 12.6495L50.2007 10.8318H48.4911V9.6523C48.4911 9.15503 48.7299 8.67032 49.4956 8.67032H50.2728V7.1228C50.2728 7.1228 49.5675 7 48.8932 7C47.4853 7 46.565 7.87057 46.565 9.44653V10.8318H45V12.6495H46.565V17.0435H48.4911V12.6495H49.9273Z" fill="white"/>
                <circle cx="84" cy="12" r="12" fill="#2B2B2B"/>
                <path d="M84.0229 9.44672C82.5978 9.44672 81.4484 10.5964 81.4484 12.0217C81.4484 13.4471 82.5978 14.5968 84.0229 14.5968C85.4479 14.5968 86.5973 13.4471 86.5973 12.0217C86.5973 10.5964 85.4479 9.44672 84.0229 9.44672ZM84.0229 13.6958C83.102 13.6958 82.3491 12.9451 82.3491 12.0217C82.3491 11.0984 83.0997 10.3476 84.0229 10.3476C84.946 10.3476 85.6966 11.0984 85.6966 12.0217C85.6966 12.9451 84.9437 13.6958 84.0229 13.6958ZM87.3031 9.34139C87.3031 9.67531 87.0342 9.942 86.7026 9.942C86.3688 9.942 86.1021 9.67307 86.1021 9.34139C86.1021 9.0097 86.371 8.74077 86.7026 8.74077C87.0342 8.74077 87.3031 9.0097 87.3031 9.34139ZM89.0082 9.95097C88.9701 9.14641 88.7864 8.43374 88.1971 7.84657C87.6101 7.25941 86.8975 7.07564 86.0932 7.0353C85.2642 6.98823 82.7793 6.98823 81.9503 7.0353C81.1482 7.0734 80.4357 7.25717 79.8464 7.84433C79.2571 8.4315 79.0756 9.14417 79.0353 9.94872C78.9882 10.7779 78.9882 13.2633 79.0353 14.0925C79.0734 14.8971 79.2571 15.6097 79.8464 16.1969C80.4357 16.7841 81.1459 16.9678 81.9503 17.0082C82.7793 17.0552 85.2642 17.0552 86.0932 17.0082C86.8975 16.9701 87.6101 16.7863 88.1971 16.1969C88.7841 15.6097 88.9679 14.8971 89.0082 14.0925C89.0552 13.2633 89.0552 10.7802 89.0082 9.95097ZM87.9372 14.9822C87.7624 15.4215 87.4241 15.7599 86.9827 15.9369C86.3217 16.1991 84.7533 16.1386 84.0229 16.1386C83.2924 16.1386 81.7218 16.1969 81.063 15.9369C80.6239 15.7621 80.2855 15.4237 80.1085 14.9822C79.8464 14.3211 79.9069 12.7523 79.9069 12.0217C79.9069 11.2911 79.8486 9.72013 80.1085 9.06125C80.2833 8.62199 80.6216 8.28359 81.063 8.10654C81.724 7.84433 83.2924 7.90484 84.0229 7.90484C84.7533 7.90484 86.324 7.84657 86.9827 8.10654C87.4218 8.28135 87.7602 8.61975 87.9372 9.06125C88.1993 9.72237 88.1388 11.2911 88.1388 12.0217C88.1388 12.7523 88.1993 14.3233 87.9372 14.9822Z" fill="white"/>
                </svg> 